<?xml version="1.0"?>
<svg width="110" height="135" xmlns="http://www.w3.org/2000/svg" xmlns:svg="http://www.w3.org/2000/svg" version="1.1">
 <g class="layer">
  <title>Layer 1</title>
  <g id="svg_1">
   <path d="m25.55,25l-8.83,0c-2.01,0 -3.64,-1.63 -3.64,-3.63l0,-8.87c0,-1.73 1.4,-3.12 3.13,-3.12c1.72,0 3.12,1.39 3.12,3.12l0,6.05l6.29,0.13c1.72,0.04 3.09,1.45 3.09,3.16c0,1.74 -1.42,3.16 -3.16,3.16z" id="svg_2"/>
   <path d="m50,78.13c-15.51,0 -28.12,-12.62 -28.12,-28.13s12.61,-28.12 28.12,-28.12s28.13,12.61 28.13,28.12s-12.62,28.13 -28.13,28.13zm0,-50c-12.06,0 -21.87,9.81 -21.87,21.87s9.81,21.88 21.87,21.88s21.88,-9.82 21.88,-21.88s-9.82,-21.87 -21.88,-21.87z" id="svg_3"/>
   <path d="m43.03,96.37c-22.13,-3.2 -39.1,-22.35 -39.88,-44.69c-0.18,-5.3 0.51,-10.51 2.04,-15.5c0.54,-1.77 2.43,-2.74 4.16,-2.07c1.56,0.62 2.3,2.34 1.81,3.94c-1.27,4.12 -1.87,8.42 -1.78,12.8c0.4,19.57 15.15,36.49 34.52,39.33c25.95,3.79 48.19,-17.14 46.64,-42.7c-1.2,-19.83 -17.11,-36.24 -36.9,-37.95c-12.24,-1.06 -23.91,3.24 -32.44,11.81l-4.43,-4.4c9.85,-9.9 23.32,-14.85 37.44,-13.63c21.75,1.88 39.67,19.18 42.3,40.85c3.75,30.79 -22.58,56.68 -53.48,52.21z" id="svg_4"/>
   <path d="m50,25c-13.8,0 -25,11.2 -25,25s11.2,25 25,25s25,-11.2 25,-25s-11.2,-25 -25,-25zm7.23,33.04c-1.29,1.16 -3.26,1.05 -4.42,-0.23l-4.08,-4.54c-1.19,-1.33 -1.86,-3.06 -1.86,-4.85l0,-7.24c0,-1.73 1.4,-3.13 3.13,-3.13c1.72,0 3.12,1.4 3.12,3.13l0,7.62l4.34,4.82c1.15,1.29 1.05,3.26 -0.24,4.42l0.01,0z" id="svg_5"/>
  </g>
 </g>
</svg>