<?xml version="1.0"?>
<svg width="100" height="125" xmlns="http://www.w3.org/2000/svg" xmlns:svg="http://www.w3.org/2000/svg">
 <g class="layer">
  <title>Layer 1</title>
  <path d="m95.05,20.47l-11.41,-0.37l-3.4,-3.4l-0.37,-11.41c-0.02,-0.6 -0.39,-1.13 -0.95,-1.35c-0.56,-0.22 -1.19,-0.09 -1.61,0.33l-11.61,11.61c-0.29,0.29 -0.45,0.69 -0.44,1.11l0.37,11.35l-3.02,3.02c-6.22,-4.92 -14.07,-7.87 -22.6,-7.87c-20.14,0.01 -36.51,16.38 -36.51,36.51s16.37,36.5 36.5,36.5s36.5,-16.37 36.5,-36.5c0,-8.36 -2.83,-16.07 -7.58,-22.23l3.06,-3.06l11.35,0.37s0.03,0 0.05,0c0.4,0 0.78,-0.16 1.06,-0.44l11.61,-11.61c0.42,-0.42 0.55,-1.06 0.33,-1.61s-0.75,-0.93 -1.35,-0.95l0.02,0zm-21.55,39.53c0,18.47 -15.03,33.5 -33.5,33.5s-33.5,-15.03 -33.5,-33.5s15.03,-33.5 33.5,-33.5c7.7,0 14.8,2.62 20.47,7.01l-4.1,4.1c-4.59,-3.37 -10.25,-5.36 -16.37,-5.36c-15.3,0 -27.75,12.45 -27.75,27.75s12.45,27.75 27.75,27.75s27.75,-12.45 27.75,-27.75c0,-5.94 -1.88,-11.45 -5.08,-15.97l4.12,-4.12c4.21,5.6 6.71,12.56 6.71,20.09zm-33.5,10.25c5.65,0 10.25,-4.6 10.25,-10.25c0,-1.07 -0.17,-2.11 -0.47,-3.08l4.37,-4.37c1.18,2.23 1.85,4.76 1.85,7.45c0,8.82 -7.18,16 -16,16s-16,-7.18 -16,-16s7.18,-16 16,-16c2.87,0 5.55,0.77 7.88,2.09l-4.31,4.31c-1.11,-0.42 -2.31,-0.65 -3.57,-0.65c-5.65,0 -10.25,4.6 -10.25,10.25s4.6,10.25 10.25,10.25zm30.32,-38.12l-29.03,29.03c-0.55,0.55 -1.14,0.77 -1.7,0.62c-0.5,-0.13 -0.91,-0.54 -1.04,-1.04c-0.15,-0.56 0.06,-1.14 0.62,-1.7l39.59,-39.58l2.12,2.12l-10.55,10.55l-0.01,0z" id="svg_1"/>
 </g>
</svg>