<?xml version="1.0"?>
<svg width="48" height="60" xmlns="http://www.w3.org/2000/svg" xmlns:svg="http://www.w3.org/2000/svg" enable-background="new 0 0 48 48" version="1.1" xml:space="preserve">
 <g class="layer">
  <title>Layer 1</title>
  <g id="svg_1">
   <g id="svg_2">
    <path d="m37.4,35.8c-9.3,4.4 -18.3,4.6 -26.8,0c0,-5.7 3.1,-10.7 7.7,-13c1.5,1.3 3.5,2.1 5.7,2.1c2.2,0 4.2,-0.8 5.7,-2.1c4.5,2.4 7.7,7.3 7.7,13z" id="svg_3"/>
    <circle cx="24" cy="16.1" id="svg_4" r="6.9"/>
   </g>
   <g id="svg_5">
    <path d="m48,29c-3.1,1.5 -6.2,2.3 -9.2,2.5c-1.1,-4.3 -3.9,-8.1 -7.7,-10.2c0.3,-0.3 0.5,-0.7 0.7,-1.1c0.5,-0.4 1.1,-0.8 1.7,-1.1c1.2,1 2.7,1.6 4.3,1.6c1.7,0 3.2,-0.6 4.3,-1.6c3.5,1.8 5.9,5.6 5.9,9.9z" id="svg_6"/>
    <path d="m43.1,14c0,2.9 -2.3,5.2 -5.2,5.2c-2.4,0 -4.4,-1.6 -5,-3.8c0,-0.4 -0.1,-0.8 -0.2,-1.2c0,0 0,0 0,0l0,0c0,0 0,-0.1 0,-0.1c0,-2.9 2.3,-5.2 5.2,-5.2s5.2,2.2 5.2,5.1z" id="svg_7"/>
   </g>
   <g id="svg_8">
    <path d="m16.9,21.4c-3.8,2.1 -6.6,5.9 -7.7,10.2c-3.2,-0.1 -6.2,-1 -9.2,-2.6c0,-4.3 2.4,-8.1 5.8,-9.8c1.2,1 2.7,1.6 4.3,1.6s3.2,-0.6 4.3,-1.6c0.6,0.3 1.2,0.7 1.7,1.1c0.3,0.4 0.5,0.7 0.8,1.1z" id="svg_9"/>
    <path d="m15.4,14c0,0 0,0.1 0,0.1l0,0c0,0 0,0 0,0c-0.1,0.4 -0.1,0.8 -0.2,1.2c-0.6,2.2 -2.6,3.8 -5,3.8c-2.9,0 -5.2,-2.3 -5.2,-5.2c0,-2.9 2.3,-5.2 5.2,-5.2s5.2,2.4 5.2,5.3z" id="svg_10"/>
   </g>
  </g>
 </g>
</svg>